<?xml version="1.0" encoding="UTF-8" standalone="no"?>
<svg
   version="1.1"
   viewBox="0 0 61 61"
   matcher="0.17043415409487617"
   id="svg150"
   sodipodi:docname="icon.svg"
   width="61"
   height="61"
   inkscape:version="1.2.2 (b0a84865, 2022-12-01)"
   inkscape:export-filename="icon40x40.png"
   inkscape:export-xdpi="96"
   inkscape:export-ydpi="96"
   xmlns:inkscape="http://www.inkscape.org/namespaces/inkscape"
   xmlns:sodipodi="http://sodipodi.sourceforge.net/DTD/sodipodi-0.dtd"
   xmlns="http://www.w3.org/2000/svg"
   xmlns:svg="http://www.w3.org/2000/svg">
  <defs
     id="defs154" />
  <sodipodi:namedview
     id="namedview152"
     pagecolor="#ffffff"
     bordercolor="#000000"
     borderopacity="0.25"
     inkscape:showpageshadow="2"
     inkscape:pageopacity="0.0"
     inkscape:pagecheckerboard="0"
     inkscape:deskcolor="#d1d1d1"
     showgrid="false"
     inkscape:zoom="5.425846"
     inkscape:cx="39.901612"
     inkscape:cy="27.461155"
     inkscape:window-width="1440"
     inkscape:window-height="900"
     inkscape:window-x="0"
     inkscape:window-y="0"
     inkscape:window-maximized="0"
     inkscape:current-layer="g144" />
  <g
     viewBox="0 0 640 400"
     matcher="0.17043415409487617"
     id="g144"
     transform="translate(-122.24,-169.17803)">
    <g
       id="tight-bounds"
       style="display:inline"
       transform="translate(122.24,169.17803)">
      <svg
         viewBox="0 0 395.52 61.643947"
         height="61.643948"
         width="395.51999"
         version="1.1"
         id="svg131">
        <g
           id="g127">
          <svg
             viewBox="0 0 508.14725 79.197519"
             height="61.643948"
             width="395.51999"
             version="1.1"
             id="svg125">
            <g
               id="g123">
              <svg
                 viewBox="0 0 80.40194 79.197519"
                 height="79.197517"
                 width="80.401939"
                 version="1.1"
                 id="svg121">
                <g
                   id="g119">
                  <svg
                     xml:space="preserve"
                     viewBox="0 1.4979992 100 98.501999"
                     x="0"
                     y="0"
                     height="79.197517"
                     width="80.401939"
                     class="icon-icon-0"
                     data-fill-palette-color="accent"
                     id="icon-0"
                     version="1.1"><path
                       d="m 24.317571,46.129844 c 0,6.262886 -5.000367,11.326433 -11.144092,11.326433 -6.1807641,0 -11.1674841,-5.063547 -11.1674841,-11.326433 -0.00195,-6.249032 4.9857453,-11.325443 11.1674841,-11.325443 6.143725,0 11.144092,5.076411 11.144092,11.325443 m 48.838859,0 c 0,6.262886 5.001341,11.326433 11.143117,11.326433 6.181739,0 11.18308,-5.063547 11.18308,-11.326433 -9.75e-4,-6.249032 -5.002316,-11.325443 -11.18308,-11.325443 -6.141776,0 -11.143117,5.076411 -11.143117,11.325443 M 42.56842,85.055921 c -0.25343,-2.410553 0.660867,-4.639028 2.208739,-6.261896 -9.443187,-1.830675 -13.312866,-6.506316 -16.675686,-10.73468 -1.638521,-2.074104 -3.19809,-4.045295 -5.267442,-5.436608 -0.06336,-0.03859 -0.139386,-0.03859 -0.189098,-0.09103 -1.765236,-1.482352 -3.999318,-2.421438 -6.459537,-2.421438 H 10.155715 C 4.5695355,60.11026 0,64.736424 0,70.405578 V 98.971026 H 26.335262 V 80.507932 c 3.845311,3.41396 9.279432,6.660686 17.628972,8.078717 -0.696932,-1.030125 -1.243756,-2.190872 -1.395814,-3.530728 M 87.333882,60.11026 h -6.042353 c -2.448522,0 -4.694301,0.940076 -6.445891,2.422428 -0.06238,0.05146 -0.141336,0.05146 -0.190073,0.08905 -2.069352,1.391313 -3.63087,3.351619 -5.280113,5.438588 -3.693253,4.639027 -7.881669,9.93413 -19.595978,11.248258 a 4.8444094,4.9180823 0 0 0 -4.264444,5.423743 4.8249148,4.8982912 0 0 0 4.797622,4.367891 c 0.178376,0 0.355776,-0.01484 0.546824,-0.02573 9.924703,-1.121165 16.067453,-4.703349 20.293884,-8.504225 V 98.971026 H 97.473026 V 70.405578 c 0,-5.669154 -4.569535,-10.295318 -10.139144,-10.295318 M 41.649249,27.397591 v -11.33138 c 0,-2.92908 2.235057,-5.304998 4.992569,-5.304998 H 57.561721 V 8.0597311 C 57.561721,4.4359851 54.795436,1.498 51.38583,1.498 H 22.746305 c -3.409606,0 -6.175891,2.9379851 -6.175891,6.5617311 V 22.080718 c 0,3.623747 2.766285,6.563711 6.175891,6.563711 h 4.725493 v 7.747216 c 0,0.427488 0.578989,0.729302 0.878232,0.371083 2.253576,-2.70544 4.502279,-5.41088 6.755855,-8.11731 h 6.688599 a 5.3610164,5.4425457 0 0 1 -0.145235,-1.247827"
                       fill="#66c7de"
                       data-fill-palette-color="accent"
                       id="path114"
                       style="stroke-width:0.982114" /><path
                       d="m 44.483765,17.934489 v 12.649466 c 0,2.642107 2.015742,4.784491 4.503254,4.784491 h 11.868315 l 4.924338,5.917532 c 0.220289,0.263222 0.640397,0.04255 0.640397,-0.268169 v -5.648373 h 7.432319 c 2.486537,0 4.502279,-2.142384 4.502279,-4.784493 V 17.934489 c 0,-2.641119 -2.015742,-4.784493 -4.502279,-4.784493 H 48.987019 c -2.487512,-9.9e-4 -4.503254,2.142384 -4.503254,4.784493"
                       fill="#66c7de"
                       data-fill-palette-color="accent"
                       id="path116"
                       style="stroke-width:0.982114" /></svg>
                </g>
              </svg>
            </g>
          </svg>
        </g>
        <defs
           id="defs129" />
      </svg>
      <rect
         width="395.51999"
         height="61.643948"
         fill="none"
         stroke="none"
         visibility="hidden"
         id="rect133"
         x="0"
         y="0" />
    </g>
  </g>
</svg>
