<?xml version="1.0" encoding="UTF-8" standalone="no"?>
<svg
   version="1.1"
   viewBox="0 0 395.50256 61.643948"
   matcher="0.17043415409487617"
   id="svg150"
   sodipodi:docname="icon.svg"
   width="395.50256"
   height="61.643948"
   inkscape:version="1.2.2 (b0a84865, 2022-12-01)"
   xmlns:inkscape="http://www.inkscape.org/namespaces/inkscape"
   xmlns:sodipodi="http://sodipodi.sourceforge.net/DTD/sodipodi-0.dtd"
   xmlns="http://www.w3.org/2000/svg"
   xmlns:svg="http://www.w3.org/2000/svg">
  <defs
     id="defs154" />
  <sodipodi:namedview
     id="namedview152"
     pagecolor="#ffffff"
     bordercolor="#000000"
     borderopacity="0.25"
     inkscape:showpageshadow="2"
     inkscape:pageopacity="0.0"
     inkscape:pagecheckerboard="0"
     inkscape:deskcolor="#d1d1d1"
     showgrid="false"
     inkscape:zoom="1.27"
     inkscape:cx="194.88189"
     inkscape:cy="-33.858268"
     inkscape:window-width="1440"
     inkscape:window-height="900"
     inkscape:window-x="0"
     inkscape:window-y="0"
     inkscape:window-maximized="0"
     inkscape:current-layer="g144" />
  <g
     viewBox="0 0 640 400"
     matcher="0.17043415409487617"
     id="g144"
     transform="translate(-122.24,-169.17803)">
    <g
       id="tight-bounds"
       style="display:inline"
       transform="translate(122.24,169.17803)">
      <svg
         viewBox="0 0 395.52 61.643947"
         height="61.643948"
         width="395.51999"
         version="1.1"
         id="svg131">
        <g
           id="g127">
          <svg
             viewBox="0 0 508.14725 79.197519"
             height="61.643948"
             width="395.51999"
             version="1.1"
             id="svg125">
            <g
               id="g97">
              <rect
                 width="5.1679549"
                 height="68.767746"
                 x="93.930618"
                 y="5.2148871"
                 fill="#3d3839"
                 opacity="1"
                 stroke-width="0"
                 stroke="transparent"
                 fill-opacity="1"
                 class="rect-i-0"
                 data-fill-palette-color="primary"
                 rx="1%"
                 id="i-0"
                 data-palette-color="#3d3839" />
            </g>
            <g
               transform="translate(112.62725,10.945533)"
               id="g112">
              <svg
                 viewBox="0 0 395.52 57.306453"
                 height="57.306454"
                 width="395.51999"
                 version="1.1"
                 id="svg110">
                <g
                   id="textblocktransform">
                  <svg
                     viewBox="0 0 395.52 57.306453"
                     height="57.306454"
                     width="395.51999"
                     id="textblock"
                     version="1.1">
                    <g
                       id="g106">
                      <svg
                         viewBox="0 0 395.52 57.306453"
                         height="57.306454"
                         width="395.51999"
                         version="1.1"
                         id="svg104">
                        <g
                           id="g102">
                          <svg
                             width="395.51999"
                             viewBox="2.0799999 -33.330002 234.36 33.960003"
                             height="57.306454"
                             data-palette-color="#3d3839"
                             version="1.1"
                             id="svg100">
                            <path
                               d="m 18.4,0.63 v 0 q -3.37,0 -6.33,-1.27 Q 9.1,-1.91 6.86,-4.13 4.62,-6.35 3.35,-9.31 2.08,-12.26 2.08,-15.63 v 0 q 0,-3.36 1.27,-6.31 1.27,-2.96 3.51,-5.18 2.24,-2.22 5.21,-3.49 2.96,-1.27 6.33,-1.27 v 0 q 3.34,0 6.25,1.24 2.92,1.23 5.14,3.38 v 0 l -1.14,4.79 q -1.6,-2.56 -4.29,-4.11 -2.69,-1.55 -5.96,-1.55 v 0 q -3.43,0 -6.2,1.69 -2.76,1.68 -4.39,4.51 -1.63,2.83 -1.63,6.3 v 0 q 0,3.44 1.63,6.29 1.63,2.85 4.39,4.53 2.77,1.68 6.2,1.68 v 0 q 3.3,0 5.98,-1.56 2.67,-1.56 4.27,-4.09 v 0 l 1.14,4.79 q -2.22,2.11 -5.14,3.36 -2.91,1.26 -6.25,1.26 z M 44.09,0.42 v 0 q -3.02,0 -5.52,-1.46 -2.5,-1.46 -3.97,-3.93 -1.48,-2.46 -1.48,-5.45 v 0 q 0,-3.02 1.48,-5.47 1.47,-2.44 3.97,-3.9 2.5,-1.46 5.52,-1.46 v 0 q 3.06,0 5.54,1.46 2.49,1.46 3.96,3.9 1.48,2.45 1.48,5.47 v 0 q 0,2.99 -1.48,5.45 -1.47,2.47 -3.96,3.93 -2.48,1.46 -5.54,1.46 z m 0,-3.55 v 0 q 2.02,0 3.65,-0.98 1.63,-0.99 2.6,-2.64 0.98,-1.65 0.98,-3.67 v 0 q 0,-2.01 -0.98,-3.66 -0.97,-1.65 -2.6,-2.64 -1.63,-0.99 -3.65,-0.99 v 0 q -2.01,0 -3.64,0.99 -1.63,0.99 -2.61,2.64 -0.97,1.65 -0.97,3.66 v 0 q 0,2.02 0.97,3.67 0.98,1.65 2.61,2.64 1.63,0.98 3.64,0.98 z m 25.7,3.55 v 0 q -3.02,0 -5.52,-1.46 -2.5,-1.46 -3.98,-3.93 -1.48,-2.46 -1.48,-5.45 v 0 q 0,-3.02 1.48,-5.47 1.48,-2.44 3.98,-3.9 2.5,-1.46 5.52,-1.46 v 0 q 3.05,0 5.53,1.46 2.49,1.46 3.96,3.9 1.48,2.45 1.48,5.47 v 0 q 0,2.99 -1.48,5.45 -1.47,2.47 -3.96,3.93 -2.48,1.46 -5.53,1.46 z m 0,-3.55 v 0 q 2.01,0 3.64,-0.98 1.63,-0.99 2.61,-2.64 0.97,-1.65 0.97,-3.67 v 0 q 0,-2.01 -0.97,-3.66 -0.98,-1.65 -2.61,-2.64 -1.63,-0.99 -3.64,-0.99 v 0 q -2.02,0 -3.65,0.99 -1.63,0.99 -2.6,2.64 -0.98,1.65 -0.98,3.66 v 0 q 0,2.02 0.98,3.67 0.97,1.65 2.6,2.64 1.63,0.98 3.65,0.98 z M 89.71,0 h -3.75 v -20.83 h 3.48 v 3.82 q 1.11,-1.84 2.95,-2.94 1.84,-1.09 4.37,-1.09 v 0 l 0.94,3.75 q -0.66,-0.21 -1.53,-0.21 v 0 q -2.91,0 -4.68,1.86 -1.78,1.86 -1.78,5.29 v 0 z m 20.8,0.28 v 0 q -2.85,0 -5.21,-1.44 -2.36,-1.44 -3.76,-3.87 -1.41,-2.44 -1.41,-5.39 v 0 q 0,-2.95 1.41,-5.38 1.4,-2.43 3.76,-3.87 2.36,-1.44 5.21,-1.44 v 0 q 2.05,0 3.86,0.73 1.8,0.73 3.19,2.01 v 0 -14.96 h 3.75 V 0 h -3.47 v -2.74 q -1.39,1.39 -3.28,2.2 -1.9,0.82 -4.05,0.82 z M 111,-3.13 v 0 q 1.98,0 3.59,-0.98 1.62,-0.99 2.57,-2.64 0.96,-1.65 0.96,-3.67 v 0 q 0,-2.01 -0.96,-3.66 -0.95,-1.65 -2.57,-2.64 -1.61,-0.99 -3.59,-0.99 v 0 q -1.98,0 -3.6,0.99 -1.61,0.99 -2.57,2.64 -0.95,1.65 -0.95,3.66 v 0 q 0,2.02 0.95,3.67 0.96,1.65 2.57,2.64 1.62,0.98 3.6,0.98 z M 131.72,0 h -3.75 v -20.83 h 3.75 z m -1.87,-24.58 v 0 q -1.04,0 -1.77,-0.73 -0.73,-0.73 -0.73,-1.77 v 0 q 0,-1.08 0.73,-1.79 0.73,-0.71 1.77,-0.71 v 0 q 1.08,0 1.79,0.71 0.71,0.71 0.71,1.79 v 0 q 0,1.04 -0.71,1.77 -0.71,0.73 -1.79,0.73 z M 143.18,0 h -3.75 v -32.29 l 14.51,20 14.24,-20 V 0 h -3.96 v -14.44 q 0,-1.43 0.04,-3.11 0.03,-1.69 0.24,-3.84 v 0 q -1.08,1.91 -2.1,3.35 -1.03,1.44 -1.86,2.66 v 0 l -6.74,9.55 -6.94,-9.55 q -0.87,-1.22 -1.86,-2.66 -0.99,-1.44 -2.1,-3.35 v 0 q 0.21,2.15 0.24,3.84 0.04,1.68 0.04,3.11 v 0 z m 42.64,0.42 v 0 q -3.27,0 -5.85,-1.46 -2.59,-1.46 -4.07,-3.98 -1.47,-2.51 -1.47,-5.61 v 0 q 0,-2.95 1.42,-5.36 1.42,-2.41 3.84,-3.84 2.41,-1.42 5.33,-1.42 v 0 q 2.88,0 5.28,1.37 2.39,1.37 3.81,3.7 1.43,2.33 1.43,5.28 v 0 1.52 h -13.61 q -0.91,0 -1.84,-0.06 -0.94,-0.07 -1.84,-0.21 v 0 q 0.38,2.77 2.51,4.65 2.14,1.87 5.09,1.87 v 0 q 1.98,0 3.68,-0.9 1.7,-0.9 2.74,-2.39 v 0 l 1.05,4.27 q -1.5,1.21 -3.42,1.89 -1.93,0.68 -4.08,0.68 z m -7.68,-12.61 v 0 q 1.88,-0.31 3.79,-0.31 v 0 h 6.91 q 0.76,0 1.51,0.05 0.74,0.05 1.51,0.12 v 0 q -0.49,-2.43 -2.43,-4.01 -1.95,-1.58 -4.41,-1.58 v 0 q -2.54,0 -4.45,1.69 -1.91,1.68 -2.43,4.04 z m 32.33,12.61 v 0 q -3.27,0 -5.85,-1.46 -2.59,-1.46 -4.07,-3.98 -1.47,-2.51 -1.47,-5.61 v 0 q 0,-2.95 1.42,-5.36 1.42,-2.41 3.84,-3.84 2.41,-1.42 5.33,-1.42 v 0 q 2.88,0 5.28,1.37 2.39,1.37 3.81,3.7 1.43,2.33 1.43,5.28 v 0 1.52 h -13.61 q -0.91,0 -1.84,-0.06 -0.94,-0.07 -1.84,-0.21 v 0 q 0.38,2.77 2.51,4.65 2.14,1.87 5.09,1.87 v 0 q 1.98,0 3.68,-0.9 1.7,-0.9 2.74,-2.39 v 0 l 1.05,4.27 q -1.5,1.21 -3.42,1.89 -1.93,0.68 -4.08,0.68 z m -7.68,-12.61 v 0 q 1.88,-0.31 3.79,-0.31 v 0 h 6.91 q 0.76,0 1.51,0.05 0.74,0.05 1.51,0.12 v 0 q -0.49,-2.43 -2.43,-4.01 -1.95,-1.58 -4.41,-1.58 v 0 q -2.54,0 -4.45,1.69 -1.91,1.68 -2.43,4.04 z M 231.37,0 h -3.75 v -17.71 h -4.73 v -3.12 h 4.83 v -6.95 h 3.54 v 6.95 h 5.18 v 3.12 h -5.07 z"
                               opacity="1"
                               fill="#3d3839"
                               class="wordmark-text-0"
                               data-fill-palette-color="primary"
                               id="text-0" />
                          </svg>
                        </g>
                      </svg>
                    </g>
                  </svg>
                </g>
              </svg>
            </g>
            <g
               id="g123">
              <svg
                 viewBox="0 0 80.40194 79.197519"
                 height="79.197517"
                 width="80.401939"
                 version="1.1"
                 id="svg121">
                <g
                   id="g119">
                  <svg
                     xml:space="preserve"
                     viewBox="0 1.4979992 100 98.501999"
                     x="0"
                     y="0"
                     height="79.197517"
                     width="80.401939"
                     class="icon-icon-0"
                     data-fill-palette-color="accent"
                     id="icon-0"
                     version="1.1"><path
                       d="m 24.948,46.601 c 0,6.329 -5.13,11.446 -11.433,11.446 C 7.174,58.047 2.058,52.93 2.058,46.601 2.056,40.286 7.173,35.156 13.515,35.156 c 6.303,0 11.433,5.13 11.433,11.445 m 50.105,0 c 0,6.329 5.131,11.446 11.432,11.446 6.342,0 11.473,-5.117 11.473,-11.446 -0.001,-6.315 -5.132,-11.445 -11.473,-11.445 -6.301,0 -11.432,5.13 -11.432,11.445 M 43.672,85.938 C 43.412,83.502 44.35,81.25 45.938,79.61 36.25,77.76 32.28,73.035 28.83,68.762 27.149,66.666 25.549,64.674 23.426,63.268 23.361,63.229 23.283,63.229 23.232,63.176 21.421,61.678 19.129,60.729 16.605,60.729 H 10.419 C 4.688,60.729 0,65.404 0,71.133 V 100 H 27.018 V 81.342 c 3.945,3.45 9.52,6.731 18.086,8.164 -0.715,-1.041 -1.276,-2.214 -1.432,-3.568 M 89.598,60.729 h -6.199 c -2.512,0 -4.816,0.95 -6.613,2.448 -0.064,0.052 -0.145,0.052 -0.195,0.09 -2.123,1.406 -3.725,3.387 -5.417,5.496 -3.789,4.688 -8.086,10.039 -20.104,11.367 a 4.97,4.97 0 0 0 -4.375,5.481 4.95,4.95 0 0 0 4.922,4.414 c 0.183,0 0.365,-0.015 0.561,-0.026 10.182,-1.133 16.484,-4.753 20.82,-8.594 V 100 H 100 V 71.133 C 100,65.404 95.312,60.729 89.598,60.729 M 42.729,27.671 V 16.22 c 0,-2.96 2.293,-5.361 5.122,-5.361 h 11.203 v -2.73 c 0,-3.662 -2.838,-6.631 -6.336,-6.631 H 23.336 C 19.838,1.498 17,4.467 17,8.129 v 14.169 c 0,3.662 2.838,6.633 6.336,6.633 h 4.848 v 7.829 c 0,0.432 0.594,0.737 0.901,0.375 2.312,-2.734 4.619,-5.468 6.931,-8.203 h 6.862 a 5.5,5.5 0 0 1 -0.149,-1.261"
                       fill="#66c7de"
                       data-fill-palette-color="accent"
                       id="path114" /><path
                       d="m 45.637,18.108 v 12.783 c 0,2.67 2.068,4.835 4.62,4.835 h 12.176 l 5.052,5.98 c 0.226,0.266 0.657,0.043 0.657,-0.271 v -5.708 h 7.625 c 2.551,0 4.619,-2.165 4.619,-4.835 V 18.108 c 0,-2.669 -2.068,-4.835 -4.619,-4.835 h -25.51 c -2.552,-10e-4 -4.62,2.165 -4.62,4.835"
                       fill="#66c7de"
                       data-fill-palette-color="accent"
                       id="path116" /></svg>
                </g>
              </svg>
            </g>
          </svg>
        </g>
        <defs
           id="defs129" />
      </svg>
      <rect
         width="395.51999"
         height="61.643948"
         fill="none"
         stroke="none"
         visibility="hidden"
         id="rect133"
         x="0"
         y="0" />
    </g>
  </g>
</svg>
